<svg width="750" height="240" version="1.1" xmlns="http://www.w3.org/2000/svg"><g id="Artboard" stroke="none" stroke-width="1" fill="none" fill-rule="evenodd"><g id="bachoco-logo" transform="translate(25 15)" fill="#FFF" fill-rule="nonzero"><path d="M178.26 199.659a12.77 12.77 0 01-7.047 1.868 12.013 12.013 0 01-4.935-.934 9.766 9.766 0 01-3.504-2.616 11.208 11.208 0 01-2.084-3.914 16.266 16.266 0 01-.682-4.81 23.503 23.503 0 011.41-8.641 16.925 16.925 0 013.739-5.885c1.5-1.5 3.313-2.65 5.308-3.373a18.081 18.081 0 016.121-1.064c1.404-.02 2.806.1 4.187.355a12.62 12.62 0 012.72.84l-2.187 4.98a7.366 7.366 0 00-2.056-.71 17.081 17.081 0 00-3.056-.234 9.349 9.349 0 00-4.075.934 9.588 9.588 0 00-3.27 2.578 12.665 12.665 0 00-2.169 4.082 17.48 17.48 0 00-.794 5.446 8.293 8.293 0 001.869 5.717 6.207 6.207 0 004.869 2.055 10.724 10.724 0 003.205-.402c.822-.267 1.62-.605 2.383-1.008l.047 4.736zm2.448-5.708c-.036-2.099.28-4.189.934-6.184a15.476 15.476 0 012.58-4.764 11.671 11.671 0 013.738-3.064 9.582 9.582 0 014.439-1.102 8.414 8.414 0 013.486.644 6.345 6.345 0 012.29 1.72 6.734 6.734 0 011.27 2.447c.256.912.385 1.855.383 2.802a18.908 18.908 0 01-.934 6.11 15.41 15.41 0 01-2.533 4.745 11.54 11.54 0 01-3.738 3.073 9.47 9.47 0 01-4.42 1.093 7.975 7.975 0 01-3.44-.673 6.745 6.745 0 01-3.69-4.157 8.89 8.89 0 01-.365-2.69zm5.448-.71c0 2.597.935 3.886 2.804 3.886a2.963 2.963 0 002.018-.934 8.921 8.921 0 001.766-2.373 14.44 14.44 0 001.215-3.325c.305-1.222.46-2.477.458-3.737a5.061 5.061 0 00-.58-2.653 2.346 2.346 0 00-2.167-.934 3.038 3.038 0 00-2.019.869 8.202 8.202 0 00-1.766 2.26 15.006 15.006 0 00-1.72 6.894l-.009.047zm27.195 7.66l2.804-13.237c.155-.687.24-1.388.252-2.092a2.447 2.447 0 00-.383-1.476 1.645 1.645 0 00-1.411-.532 3.48 3.48 0 00-1.552.383 6.28 6.28 0 00-1.458 1.027 11.799 11.799 0 00-2.317 3.027l-2.748 12.9h-5.29l4.552-21.485h4l-.215 3.737h.168a27.35 27.35 0 011.308-1.458 9.953 9.953 0 013.954-2.484 8.237 8.237 0 012.803-.44 4.412 4.412 0 013.084 1.056 4.52 4.52 0 011.159 3.494c0 .439 0 .934-.056 1.382a11.205 11.205 0 01-.28 1.588l-3.094 14.545-5.28.065zm12.317-21.457h2.804l.85-4.035 5.608-1.588-1.206 5.604h5.028l-.99 4.381h-4.982l-2.103 9.762a8.852 8.852 0 00-.261 1.868c-.059.476.099.952.43 1.299a2 2 0 001.29.345 5.61 5.61 0 001.476-.177 5.898 5.898 0 001.402-.598v3.951c-.367.195-.748.36-1.14.496-.47.166-.95.294-1.44.382a17.1 17.1 0 01-1.588.234c-.5.061-1.002.092-1.505.093a5.02 5.02 0 01-3.374-1.018 3.82 3.82 0 01-1.177-3.073c-.002-.313.02-.625.065-.934 0-.308.094-.645.15-.99l2.495-11.696h-2.878l1.046-4.306zm16.7 0h5.28l-4.55 21.485h-5.28l4.55-21.485zm.86-6.1a2.69 2.69 0 01.935-2.186c.66-.53 1.49-.806 2.336-.775a3.655 3.655 0 012.346.775c.641.539.988 1.35.934 2.186.047.832-.3 1.637-.934 2.177a3.608 3.608 0 01-2.346.784 3.477 3.477 0 01-2.336-.784 2.718 2.718 0 01-.907-2.177h-.028zm21.906 27.557a16.53 16.53 0 01-1.505 4.278 9.398 9.398 0 01-2.252 2.803 8.29 8.29 0 01-3.01 1.541 13.874 13.874 0 01-3.737.476 15.37 15.37 0 01-2.683-.214c-.704-.128-1.4-.3-2.084-.514a14.826 14.826 0 01-1.57-.626 9.36 9.36 0 01-1.046-.58l1.972-3.904c.252.112.56.252.934.42.374.169.738.327 1.187.486a9.237 9.237 0 001.542.393c.673.11 1.355.164 2.037.158a4.506 4.506 0 003.42-1.335 7.948 7.948 0 001.823-3.672l.813-3.362h-.168a10.277 10.277 0 01-2.682 2.802 6.422 6.422 0 01-3.841 1.224 4.674 4.674 0 01-3.738-1.738 7.05 7.05 0 01-1.44-4.67 19.786 19.786 0 01.935-6.212 16.382 16.382 0 012.635-5.063 12.83 12.83 0 014.019-3.41 10.61 10.61 0 015.112-1.242 20.568 20.568 0 014.57.448c1.084.227 2.143.565 3.158 1.009l-4.401 20.504zm-1.552-17.16a3.178 3.178 0 00-1.196-.346 11.051 11.051 0 00-1.467-.093 4.412 4.412 0 00-2.551.822 7.231 7.231 0 00-2.038 2.251 12.215 12.215 0 00-1.355 3.344 16.611 16.611 0 00-.495 4.13 3.735 3.735 0 00.58 2.204c.336.512.91.818 1.523.813a2.991 2.991 0 001.504-.449 7.252 7.252 0 001.477-1.149c.48-.46.907-.974 1.27-1.532.349-.5.661-1.025.935-1.57l1.813-8.425zm7.215 10.21c-.035-2.099.28-4.189.935-6.184.57-1.727 1.44-3.34 2.57-4.764a11.671 11.671 0 013.738-3.064 9.61 9.61 0 014.439-1.102 8.414 8.414 0 013.486.644c.885.394 1.67.981 2.299 1.72a6.715 6.715 0 011.261 2.447c.26.911.392 1.854.393 2.802a18.675 18.675 0 01-.935 6.11 15.215 15.215 0 01-2.532 4.745 11.54 11.54 0 01-3.692 3.073 9.47 9.47 0 01-4.42 1.093 8.003 8.003 0 01-3.44-.673 6.897 6.897 0 01-2.336-1.728 6.996 6.996 0 01-1.355-2.429 8.89 8.89 0 01-.41-2.69zm5.458-.71c0 2.597.934 3.886 2.803 3.886a2.954 2.954 0 002.01-.934 8.538 8.538 0 001.766-2.373c.538-1.056.95-2.172 1.224-3.325a15.9 15.9 0 00.449-3.737 5.061 5.061 0 00-.58-2.653 2.337 2.337 0 00-2.168-.934 3.038 3.038 0 00-2.018.869 8.566 8.566 0 00-1.767 2.26 14.204 14.204 0 00-1.243 3.223 14.753 14.753 0 00-.476 3.718zm27.999-13.797h2.803l.85-4.035 5.608-1.588-1.206 5.604h5.019l-.935 4.381h-4.99l-2.103 9.762a9.337 9.337 0 00-.252 1.868c-.059.476.099.952.43 1.299a2 2 0 001.29.345 5.61 5.61 0 001.476-.177c.49-.14.961-.34 1.402-.598v3.951c-.367.195-.748.36-1.14.496-.47.166-.95.294-1.44.382a17.1 17.1 0 01-1.588.234c-.5.061-1.002.092-1.505.093a5.001 5.001 0 01-3.374-1.018 3.82 3.82 0 01-1.177-3.073c-.002-.313.02-.625.065-.934 0-.308.084-.645.15-.99l2.486-11.696h-2.87l1-4.306zm12.457 14.507c-.036-2.099.28-4.189.934-6.184a15.663 15.663 0 012.57-4.764 11.774 11.774 0 013.739-3.064 9.648 9.648 0 014.448-1.102 8.414 8.414 0 013.476.644 6.463 6.463 0 012.3 1.72 6.734 6.734 0 011.27 2.447c.252.913.381 1.855.384 2.802a18.908 18.908 0 01-.935 6.11 15.607 15.607 0 01-2.533 4.745 11.578 11.578 0 01-3.738 3.073 9.442 9.442 0 01-4.42 1.093 8.003 8.003 0 01-3.44-.673 6.745 6.745 0 01-3.69-4.157 9.17 9.17 0 01-.365-2.69zm5.448-.71c0 2.597.935 3.886 2.804 3.886a2.991 2.991 0 002.018-.934 8.706 8.706 0 001.757-2.373 14.531 14.531 0 001.225-3.325c.297-1.224.447-2.478.448-3.737a4.968 4.968 0 00-.58-2.653 2.337 2.337 0 00-2.167-.934 3.075 3.075 0 00-2.019.869 8.408 8.408 0 00-1.757 2.26 13.784 13.784 0 00-1.243 3.223 14.342 14.342 0 00-.486 3.718zm33.363.112a34.47 34.47 0 00-.551 3.344c-.116.97-.176 1.947-.178 2.924v.635a5.657 5.657 0 000 .664h-3.607l-.598-3.737h-.178a8.025 8.025 0 01-1.224 1.523c-.503.51-1.054.97-1.645 1.373a8.29 8.29 0 01-1.915.99c-.64.237-1.318.36-2 .364a4.87 4.87 0 01-4.103-1.868 8.404 8.404 0 01-1.44-5.203 20.64 20.64 0 01.823-5.792 17.11 17.11 0 012.3-4.95 11.689 11.689 0 013.606-3.466 8.946 8.946 0 014.673-1.28 11.41 11.41 0 012.056.15 6.665 6.665 0 011.551.485l1.87-8.706h5.289l-4.729 22.55zm-3.299-9.397a3.29 3.29 0 00-1.187-.495 8.115 8.115 0 00-1.775-.159 3.57 3.57 0 00-2.346.934 7.296 7.296 0 00-1.785 2.373 15.296 15.296 0 00-1.14 3.437 20.542 20.542 0 00-.402 4.064 4.04 4.04 0 00.56 2.158c.31.588.925.95 1.59.934a2.88 2.88 0 001.308-.327 5.205 5.205 0 001.243-.84 9.343 9.343 0 001.075-1.122c.295-.351.56-.726.794-1.12l2.065-9.837zm7.551 9.995c-.035-2.099.28-4.189.935-6.184a15.663 15.663 0 012.57-4.764 11.671 11.671 0 013.738-3.064 9.62 9.62 0 014.448-1.102 8.414 8.414 0 013.477.644 6.468 6.468 0 012.299 1.72 6.715 6.715 0 011.262 2.447c.259.911.391 1.854.392 2.802a18.908 18.908 0 01-.934 6.11 15.607 15.607 0 01-2.533 4.745 11.746 11.746 0 01-3.692 3.073 9.526 9.526 0 01-4.43 1.093 8.003 8.003 0 01-3.438-.673 6.897 6.897 0 01-2.337-1.728 6.996 6.996 0 01-1.355-2.429 8.89 8.89 0 01-.402-2.69zm5.458-.71c0 2.597.935 3.886 2.804 3.886a2.954 2.954 0 002.009-.934 8.538 8.538 0 001.766-2.373 14.531 14.531 0 001.224-3.325 15.9 15.9 0 00.45-3.737 5.061 5.061 0 00-.58-2.653 2.337 2.337 0 00-2.168-.934 3.038 3.038 0 00-2.02.869 8.566 8.566 0 00-1.765 2.26 14.204 14.204 0 00-1.243 3.223 14.753 14.753 0 00-.477 3.718zm16.018 2.644c.7.379 1.444.67 2.215.868a10.5 10.5 0 002.85.374 3.833 3.833 0 002.3-.588 2.148 2.148 0 00.831-1.794 2.26 2.26 0 00-.514-1.485 6.288 6.288 0 00-1.308-1.196 40.734 40.734 0 00-1.692-1.14 12.083 12.083 0 01-1.7-1.326 6.427 6.427 0 01-1.31-1.784 5.5 5.5 0 01-.513-2.494 6.247 6.247 0 01.551-2.616 6.184 6.184 0 011.58-2.055 7.14 7.14 0 012.439-1.336 10.33 10.33 0 013.243-.476 18.699 18.699 0 014.121.374c.902.18 1.771.495 2.58.934l-1.459 4.035c-.67-.295-1.368-.52-2.084-.673a11.93 11.93 0 00-2.55-.27 4.226 4.226 0 00-2.178.476c-.527.32-.83.908-.785 1.523 0 .463.185.907.514 1.233.4.407.839.776 1.308 1.102a48 48 0 001.691 1.14 9.158 9.158 0 011.701 1.4 7.1 7.1 0 011.309 1.869c.361.787.537 1.647.514 2.513a6.192 6.192 0 01-2.318 5.306 10.068 10.068 0 01-6.187 1.737 18.427 18.427 0 01-4.009-.41 9.348 9.348 0 01-2.803-1.01l1.663-4.231zm33.447-1.299a3.165 3.165 0 000 1.869.935.935 0 00.935.597 5.693 5.693 0 002.28-.467l-.13 3.784a7.142 7.142 0 01-2.234.766 14.51 14.51 0 01-2.87.29 4.786 4.786 0 01-2.803-.702 3.091 3.091 0 01-.935-2.643 12.03 12.03 0 01.253-2.27l5.29-24.941h5.28l-5.066 23.717zm5.925-.635c-.035-2.099.28-4.189.935-6.184a15.476 15.476 0 012.579-4.764 11.643 11.643 0 013.738-3.064 9.62 9.62 0 014.449-1.102 8.414 8.414 0 013.476.644 6.46 6.46 0 012.299 1.72 6.734 6.734 0 011.271 2.447c.252.913.38 1.855.383 2.802a18.908 18.908 0 01-.934 6.11 15.41 15.41 0 01-2.533 4.745 11.746 11.746 0 01-3.691 3.073 9.48 9.48 0 01-4.43 1.093 7.937 7.937 0 01-3.43-.673 6.85 6.85 0 01-2.346-1.728 6.996 6.996 0 01-1.355-2.429 9.179 9.179 0 01-.41-2.69zm5.458-.71c0 2.597.934 3.886 2.803 3.886a2.991 2.991 0 002.02-.934 8.706 8.706 0 001.756-2.373 14.531 14.531 0 001.224-3.325 15.9 15.9 0 00.449-3.737 5.061 5.061 0 00-.57-2.653 2.365 2.365 0 00-2.178-.934 3.075 3.075 0 00-2.018.869 8.408 8.408 0 00-1.757 2.26 13.784 13.784 0 00-1.243 3.223 14.342 14.342 0 00-.486 3.718zm16.018 2.644c.7.379 1.444.67 2.215.868a10.5 10.5 0 002.85.374 3.833 3.833 0 002.299-.588 2.157 2.157 0 00.841-1.794 2.316 2.316 0 00-.514-1.485 6.802 6.802 0 00-1.308-1.196 48.746 48.746 0 00-1.701-1.14 12.083 12.083 0 01-1.701-1.326 6.623 6.623 0 01-1.308-1.784 5.603 5.603 0 01-.524-2.504 6.116 6.116 0 01.561-2.615 6.035 6.035 0 011.57-2.055 7.103 7.103 0 012.449-1.336 10.284 10.284 0 013.242-.476 18.61 18.61 0 014.112.373 9.16 9.16 0 012.58.934l-1.43 4.026c-.67-.294-1.368-.52-2.084-.672a11.93 11.93 0 00-2.551-.271 4.188 4.188 0 00-2.169.476 1.636 1.636 0 00-.794 1.523c0 .463.185.907.514 1.233a9.82 9.82 0 001.308 1.102 41.43 41.43 0 001.701 1.14c.617.4 1.185.87 1.692 1.401a6.884 6.884 0 011.308 1.868c.362.788.537 1.647.514 2.513a6.192 6.192 0 01-2.318 5.306 10.05 10.05 0 01-6.177 1.737c-1.35.01-2.698-.127-4.018-.41a9.45 9.45 0 01-2.804-1.01l1.645-4.212zm45.222-2.532a31.99 31.99 0 00-.56 3.344c-.11.971-.166 1.947-.169 2.924v.635a5.657 5.657 0 000 .664h-3.607l-.598-3.737h-.168a8.838 8.838 0 01-1.225 1.523 11.75 11.75 0 01-1.654 1.373 8.29 8.29 0 01-1.869.99c-.64.237-1.317.36-2 .364a4.842 4.842 0 01-4.093-1.868 8.404 8.404 0 01-1.44-5.203c-.005-1.96.269-3.91.814-5.792a17.11 17.11 0 012.299-4.95c.94-1.4 2.17-2.582 3.607-3.466a8.946 8.946 0 014.673-1.28c.688-.012 1.376.038 2.056.15.535.096 1.056.26 1.551.485l1.87-8.706h5.28l-4.767 22.55zm-3.308-9.397a3.318 3.318 0 00-1.178-.495 8.209 8.209 0 00-1.785-.159 3.57 3.57 0 00-2.345.934 7.156 7.156 0 00-1.776 2.373 14.839 14.839 0 00-1.14 3.437 19.842 19.842 0 00-.411 4.064 4.04 4.04 0 00.56 2.158 1.76 1.76 0 001.59.934 2.851 2.851 0 001.308-.327 5.205 5.205 0 001.242-.84 9.343 9.343 0 001.075-1.122c.295-.351.56-.726.795-1.12l2.065-9.837zm11.812-4.512h5.28l-4.55 21.485h-5.28l4.55-21.485zm4.552-9.444h5.364l-.252 1.298-5.71 5.325h-2.972l3.57-6.623zm19.793 22.316a28.227 28.227 0 00-.495 3.307 38.434 38.434 0 00-.15 3.176v1.14c0 .355 0 .691.056 1.009h-3.906l-.598-3.737h-.168a8.838 8.838 0 01-1.225 1.523c-.509.51-1.066.97-1.663 1.373a8.048 8.048 0 01-1.87.99 6.077 6.077 0 01-2.083.364 4.851 4.851 0 01-4.187-1.868 8.19 8.19 0 01-1.355-4.932 22.793 22.793 0 01.794-6.016 14.72 14.72 0 012.477-5.063 12.241 12.241 0 014.224-3.493 13.154 13.154 0 016.075-1.318c1.102.008 2.202.102 3.29.28 1.165.188 2.32.44 3.457.757l-2.673 12.508zm-10.093 4.811a3.263 3.263 0 001.458-.327c.463-.216.891-.5 1.271-.84a7.736 7.736 0 001.028-1.122c.299-.401.57-.775.794-1.12l2.15-10.07a4.87 4.87 0 00-1.094-.318 6.937 6.937 0 00-1.224-.112 4.328 4.328 0 00-2.747.934 7.876 7.876 0 00-2.047 2.41c-.575 1.06-1 2.195-1.262 3.372a16.723 16.723 0 00-.43 3.784 5.92 5.92 0 00.449 2.4 1.664 1.664 0 001.654 1.01zm14.261-1.242c.7.379 1.444.67 2.215.868a10.5 10.5 0 002.85.374 3.833 3.833 0 002.3-.588 2.148 2.148 0 00.831-1.794 2.26 2.26 0 00-.514-1.485 6.288 6.288 0 00-1.308-1.196 48.122 48.122 0 00-1.692-1.14 11.569 11.569 0 01-1.7-1.326 6.427 6.427 0 01-1.309-1.784 5.5 5.5 0 01-.523-2.504 6.247 6.247 0 01.551-2.615 6.035 6.035 0 011.57-2.055 7.188 7.188 0 012.449-1.336 10.284 10.284 0 013.242-.476 18.699 18.699 0 014.122.373c.901.18 1.771.495 2.579.934l-1.43 4.026a10.938 10.938 0 00-2.084-.672c-.841-.182-1.7-.273-2.56-.271a4.216 4.216 0 00-2.169.476c-.53.318-.833.908-.785 1.523 0 .463.185.907.514 1.233.402.407.84.776 1.309 1.102a40.21 40.21 0 001.691 1.14c.62.4 1.19.87 1.701 1.401a7.1 7.1 0 011.308 1.868c.362.788.538 1.647.514 2.513a6.22 6.22 0 01-2.317 5.306 10.068 10.068 0 01-6.187 1.737c-1.35.01-2.698-.128-4.018-.41a9.348 9.348 0 01-2.804-1.01l1.654-4.212z" id="bachoco-slogan"/><path d="M1.076 170H.88a.847.847 0 01-.878-.807.808.808 0 01.663-.852C113.578 133.38 233.58 121 350.51 121s236.968 12.41 349.927 47.35a.806.806 0 01.56.843.831.831 0 01-.266.582.844.844 0 01-.602.225h-.187a1924.826 1924.826 0 00-698.865 0z" id="bachoco-divider"/><path d="M628.316 21.111c26.412 0 44.684 10.197 44.684 38.38 0 27.048-20.354 38.5-44.684 38.5-24.331 0-45.479-11.452-45.479-38.51 0-28.145 19.028-38.37 45.479-38.37zm0 61.831c15.685 0 16.292-11.693 16.292-23.451 0-11.759-.57-23.34-16.292-23.34-15.723 0-17.096 11.451-17.096 23.33 0 11.88 1.373 23.461 17.096 23.461zM502.889 59.314c0-25.664 18.589-37.003 45.618-37.003 9.273-.081 18.529.8 27.617 2.63v15.067c-5.583-.409-12.52-1.106-18.42-1.106-17.674 0-26.432 5.215-26.432 21.267 0 16.053 8.767 21.11 26.44 21.11 8.45 0 12.839-.698 18.263-1.125V95.76a121.543 121.543 0 01-23.705 2.23c-28.234 0-49.381-10.373-49.381-38.676zm-8.907.177c0 27.048-20.344 38.509-44.675 38.509-24.331 0-45.478-11.451-45.478-38.51 0-28.182 19.074-38.37 45.478-38.37 26.403 0 44.675 10.197 44.675 38.37zm-61.761 0c0 11.87 1.41 23.451 17.086 23.451 15.676 0 16.301-11.693 16.301-23.451 0-11.759-.57-23.33-16.301-23.33-15.732 0-17.086 11.58-17.086 23.33zm-94.756-13.636V96.94H308.95V.095h28.533v31.882c8.953-3.96 17.244-7.324 29.67-7.324 11.074 0 24.575 6.125 24.575 22.856v49.469h-28.421V56.079c-.046-2.398-.13-5.186-.233-7.045 0 0-.336-5.8-10.942-5.8a49.203 49.203 0 00-14.668 2.62zM270.56 97.99c-28.243 0-49.381-10.374-49.381-38.705 0-25.663 18.523-36.975 45.6-36.975 9.284-.082 18.553.8 27.654 2.63v15.067c-5.602-.409-12.539-1.106-18.43-1.106-17.684 0-26.441 5.261-26.441 21.267s8.757 21.11 26.44 21.11c8.45 0 12.829-.698 18.282-1.125V95.76a122.077 122.077 0 01-23.724 2.23zm-58.82-51.625V95.64s-24.163 2.342-38.83 2.342c-16.61 0-43.826 1.107-43.826-24.167 0-24.697 32.052-22.782 54.702-22.782-.14-9.23-1.204-14.072-19.158-14.072a203.38 203.38 0 00-27.814 2.37V24.68a251.032 251.032 0 0135.04-2.62c18.58 0 39.886 1.794 39.886 24.306zm-27.496 36.836V64.984c-2.41-.13-9.972-.13-11.932-.13-7.544 0-15.107.567-15.107 9.518 0 9.118 7.563 9.667 15.107 9.667 3.992.004 7.98-.276 11.932-.837zM96.19 45.846s24.275 4.07 24.275 25.617c0 21.852-26.301 25.44-42.014 25.44H29.594c-2.567-.04-4.62-2.138-4.594-4.694V4.743C25 2.205 27.045.136 29.594.095h44.703c2.54 0 6.666-.093 9.187-.093 0 0 34.181-.752 34.181 24.168 0 17.846-20.055 19.64-26.002 21.025 0-.056 2.035.25 4.528.65zm-41.08-26.12v14.817c-.042 2.56 2.003 4.67 4.574 4.722h6.835a59.909 59.909 0 009.13-.874s10.103-1.766 10.103-11.145c0-9.378-4.827-12.167-14.65-12.167h-11.38c-2.557.03-4.613 2.102-4.613 4.648zM77.965 80.87S89.17 78.685 89.17 68.674c0-9.964-5.135-13.013-15.713-13.013h-13.95c-2.57.036-4.628 2.134-4.602 4.694v16.731c0 2.542 2.05 4.612 4.603 4.648h9.336a58.84 58.84 0 009.122-.865z" id="bachoco-letters"/><path d="M695.35 91.007l.064-.018a12.104 12.104 0 010 11.979 11.128 11.128 0 01-4.431 4.441 12.02 12.02 0 01-11.952 0 11.266 11.266 0 01-4.441-4.441 12.076 12.076 0 010-11.979 11.164 11.164 0 014.487-4.45 12.057 12.057 0 0111.786 0 11.11 11.11 0 014.487 4.468zm-1.701 11.003a10.036 10.036 0 000-9.998 9.121 9.121 0 00-3.733-3.686 9.947 9.947 0 00-9.828 0 9.287 9.287 0 00-3.733 3.686 9.98 9.98 0 000 9.998 9.26 9.26 0 003.678 3.685 9.965 9.965 0 009.938 0 9.38 9.38 0 003.678-3.685zm-6.583-3.428c.726.78 1.367 1.636 1.912 2.552l1.573 2.543h-2.52l-1.158-2.054a10.918 10.918 0 00-2.188-3.004 2.653 2.653 0 00-1.683-.452h-1.232v5.529h-2.077V90.73h4.459c1.109-.05 2.219.071 3.291.36a3.191 3.191 0 011.627 1.253c.393.554.605 1.217.607 1.898a3.45 3.45 0 01-1.02 2.47 3.995 3.995 0 01-2.685 1.179c.403.162.774.396 1.094.69zm-2.758-2.175h.028a4.24 4.24 0 002.51-.544 1.79 1.79 0 00.67-1.446c0-.372-.112-.735-.321-1.041a1.931 1.931 0 00-.92-.682 6.826 6.826 0 00-2.123-.221h-2.41v3.934h2.566z" id="bachoco-copyright"/></g></g></svg>